<svg xmlns="http://www.w3.org/2000/svg" version="1.1" xmlns:xlink="http://www.w3.org/1999/xlink" xmlns:svgjs="http://svgjs.dev/svgjs" width="1500" height="231" viewBox="0 0 1500 231"><g transform="matrix(1,0,0,1,-0.9090909090909918,0.3116270866933064)"><svg viewBox="0 0 396 61" data-background-color="#ffffff" preserveAspectRatio="xMidYMid meet" height="231" width="1500" xmlns="http://www.w3.org/2000/svg" xmlns:xlink="http://www.w3.org/1999/xlink"><g id="tight-bounds" transform="matrix(1,0,0,1,0.2400000000000091,-0.08229113544715005)"><svg viewBox="0 0 395.52 61.164582270894314" height="61.164582270894314" width="395.52"><g><svg viewBox="0 0 489.56913322472184 75.7086658738216" height="61.164582270894314" width="395.52"><g transform="matrix(1,0,0,1,94.04913322472184,10.463353966642494)"><svg viewBox="0 0 395.52 54.781957940536614" height="54.781957940536614" width="395.52"><g id="textblocktransform"><svg viewBox="0 0 395.52 54.781957940536614" height="54.781957940536614" width="395.52" id="textblock"><g><svg viewBox="0 0 395.52 54.781957940536614" height="54.781957940536614" width="395.52"><g transform="matrix(1,0,0,1,0,0)"><svg width="395.52" viewBox="0.5 -37.6 278.28 38.2" height="54.781957940536614" data-palette-color="#89939e"><g class="wordmark-text-0" data-fill-palette-color="primary" id="text-0"><path d="M32.9-1.25L28.55 0.5 24.65-9.5 8.45-9.5 4.55 0.4 0.5-1.25 14.2-35 19.4-35 32.9-1.25ZM16.55-30.3L9.95-13.5 23.1-13.5 16.55-30.3ZM49.05 0L44.35 0 33.9-24.8 38-26.5 46.85-5.1 55.7-26.5 59.55-24.8 49.05 0ZM74 0.6L74 0.6Q70.75 0.6 68.09-1.05 65.45-2.7 63.87-5.73 62.3-8.75 62.3-12.85L62.3-12.85Q62.3-16.75 63.87-19.85 65.45-22.95 68.22-24.78 71-26.6 74.59-26.6L74.59-26.6Q76.84-26.6 78.67-25.83 80.5-25.05 81.84-23.9L81.84-23.9 81.84-26 85.95-26 85.95-6.3Q85.95-4.4 86.87-3.83 87.8-3.25 88.9-3.25L88.9-3.25 87.95 0.25Q83.15 0.25 82.15-3.65L82.15-3.65Q81-2.05 79.02-0.73 77.05 0.6 74 0.6ZM75-3.4L75-3.4Q76.9-3.4 78.59-4.33 80.3-5.25 81.45-6.65L81.45-6.65 81.45-20.6Q80.09-21.55 78.47-22.13 76.84-22.7 75.05-22.7L75.05-22.7Q72.65-22.7 70.82-21.48 69-20.25 67.95-18.07 66.89-15.9 66.89-13L66.89-13Q66.89-10.2 67.95-8.03 69-5.85 70.84-4.63 72.7-3.4 75-3.4ZM103.99 0.6L103.99 0.6Q100.24 0.6 98.07-1.88 95.89-4.35 95.89-8.95L95.89-8.95 95.89-21.15 91.39-21.15 91.39-25.05 95.99-25.05 96.94-33.25 100.39-33.25 100.39-25.05 107.59-25.05 107.59-21.15 100.39-21.15 100.39-8.6Q100.39-5.7 101.62-4.55 102.84-3.4 104.54-3.4L104.54-3.4Q105.79-3.4 106.92-3.8 108.04-4.2 108.99-4.75L108.99-4.75 110.24-1.15Q109.24-0.55 107.54 0.03 105.84 0.6 103.99 0.6ZM124.69 0.6L124.69 0.6Q121.44 0.6 118.79-1.05 116.14-2.7 114.57-5.73 112.99-8.75 112.99-12.85L112.99-12.85Q112.99-16.75 114.57-19.85 116.14-22.95 118.92-24.78 121.69-26.6 125.29-26.6L125.29-26.6Q127.54-26.6 129.37-25.83 131.19-25.05 132.54-23.9L132.54-23.9 132.54-26 136.64-26 136.64-6.3Q136.64-4.4 137.56-3.83 138.49-3.25 139.59-3.25L139.59-3.25 138.64 0.25Q133.84 0.25 132.84-3.65L132.84-3.65Q131.69-2.05 129.72-0.73 127.74 0.6 124.69 0.6ZM125.69-3.4L125.69-3.4Q127.59-3.4 129.29-4.33 130.99-5.25 132.14-6.65L132.14-6.65 132.14-20.6Q130.79-21.55 129.17-22.13 127.54-22.7 125.74-22.7L125.74-22.7Q123.34-22.7 121.52-21.48 119.69-20.25 118.64-18.07 117.59-15.9 117.59-13L117.59-13Q117.59-10.2 118.64-8.03 119.69-5.85 121.54-4.63 123.39-3.4 125.69-3.4ZM150.09 0L145.59 0 145.59-26 149.94-26 149.94-20.35Q150.59-22 151.69-23.43 152.79-24.85 154.44-25.73 156.09-26.6 158.29-26.6L158.29-26.6Q159.04-26.6 159.79-26.53 160.54-26.45 161.04-26.3L161.04-26.3 159.69-21.65Q158.74-22.05 157.44-22.05L157.44-22.05Q155.59-22.05 153.91-21 152.24-19.95 151.16-17.75 150.09-15.55 150.09-12.15L150.09-12.15 150.09 0ZM179.49 0.6L179.49 0.6Q174.94 0.6 171.44-1.58 167.94-3.75 165.99-7.78 164.04-11.8 164.04-17.35L164.04-17.35Q164.04-22.7 166.01-26.83 167.99-30.95 171.61-33.27 175.24-35.6 180.09-35.6L180.09-35.6Q182.59-35.6 184.64-35.13 186.69-34.65 188.49-33.8L188.49-33.8 187.04-29.8Q185.49-30.55 183.86-31 182.24-31.45 180.04-31.45L180.04-31.45Q176.84-31.45 174.31-29.8 171.79-28.15 170.34-25.05 168.89-21.95 168.89-17.55L168.89-17.55Q168.89-13.35 170.31-10.2 171.74-7.05 174.26-5.3 176.79-3.55 180.04-3.55L180.04-3.55Q182.49-3.55 184.29-4.15 186.09-4.75 187.79-5.7L187.79-5.7 189.24-1.75Q187.39-0.75 185.01-0.08 182.64 0.6 179.49 0.6ZM199.73 0L195.23 0 195.23-26 199.58-26 199.58-20.35Q200.23-22 201.33-23.43 202.43-24.85 204.08-25.73 205.73-26.6 207.93-26.6L207.93-26.6Q208.68-26.6 209.43-26.53 210.18-26.45 210.68-26.3L210.68-26.3 209.33-21.65Q208.38-22.05 207.08-22.05L207.08-22.05Q205.23-22.05 203.56-21 201.88-19.95 200.81-17.75 199.73-15.55 199.73-12.15L199.73-12.15 199.73 0ZM225.13 0.6L225.13 0.6Q221.88 0.6 219.23-1.05 216.58-2.7 215-5.73 213.43-8.75 213.43-12.85L213.43-12.85Q213.43-16.75 215-19.85 216.58-22.95 219.36-24.78 222.13-26.6 225.73-26.6L225.73-26.6Q227.98-26.6 229.81-25.83 231.63-25.05 232.98-23.9L232.98-23.9 232.98-26 237.08-26 237.08-6.3Q237.08-4.4 238-3.83 238.93-3.25 240.03-3.25L240.03-3.25 239.08 0.25Q234.28 0.25 233.28-3.65L233.28-3.65Q232.13-2.05 230.16-0.73 228.18 0.6 225.13 0.6ZM226.13-3.4L226.13-3.4Q228.03-3.4 229.73-4.33 231.43-5.25 232.58-6.65L232.58-6.65 232.58-20.6Q231.23-21.55 229.61-22.13 227.98-22.7 226.18-22.7L226.18-22.7Q223.78-22.7 221.96-21.48 220.13-20.25 219.08-18.07 218.03-15.9 218.03-13L218.03-13Q218.03-10.2 219.08-8.03 220.13-5.85 221.98-4.63 223.83-3.4 226.13-3.4ZM251.03 0L246.53 0 246.53-21.15 242.53-21.15 242.53-25.05 246.53-25.05 246.53-28.1Q246.53-32.5 248.98-35.05 251.43-37.6 255.38-37.6L255.38-37.6Q257.43-37.6 258.98-37.13 260.53-36.65 261.93-35.95L261.93-35.95 260.58-32.15Q259.53-32.7 258.33-33.15 257.13-33.6 255.68-33.6L255.68-33.6Q253.58-33.6 252.3-32.27 251.03-30.95 251.03-28.4L251.03-28.4 251.03-25.05 258.73-25.05 258.73-21.15 251.03-21.15 251.03 0ZM272.53 0.6L272.53 0.6Q268.78 0.6 266.6-1.88 264.43-4.35 264.43-8.95L264.43-8.95 264.43-21.15 259.93-21.15 259.93-25.05 264.53-25.05 265.48-33.25 268.93-33.25 268.93-25.05 276.13-25.05 276.13-21.15 268.93-21.15 268.93-8.6Q268.93-5.7 270.15-4.55 271.38-3.4 273.07-3.4L273.07-3.4Q274.32-3.4 275.45-3.8 276.57-4.2 277.53-4.75L277.53-4.75 278.78-1.15Q277.78-0.55 276.07 0.03 274.38 0.6 272.53 0.6Z" fill="#89939e" data-fill-palette-color="primary"></path></g></svg></g></svg></g></svg></g></svg></g><g><svg viewBox="0 0 81.11642772195172 75.7086658738216" height="75.7086658738216" width="81.11642772195172"><g><svg xmlns="http://www.w3.org/2000/svg" xmlns:xlink="http://www.w3.org/1999/xlink" version="1.1" x="0" y="0" viewBox="17 17 45 42" enable-background="new 0 0 80 80" xml:space="preserve" height="75.7086658738216" width="81.11642772195172" class="icon-icon-0" data-fill-palette-color="accent" id="icon-0"><g fill="#89939e" data-fill-palette-color="accent"><g fill="#89939e" data-fill-palette-color="accent"><g fill="#89939e" data-fill-palette-color="accent"><polygon fill="#89939e" points="62,28 60,28 60,19 51,19 51,17 62,17    " data-fill-palette-color="accent"></polygon></g><g fill="#89939e" data-fill-palette-color="accent"><polygon fill="#89939e" points="19,28 17,28 17,17 28,17 28,19 19,19    " data-fill-palette-color="accent"></polygon></g></g><g fill="#89939e" data-fill-palette-color="accent"><g fill="#89939e" data-fill-palette-color="accent"><polygon fill="#89939e" points="62,59 51,59 51,57 60,57 60,48 62,48    " data-fill-palette-color="accent"></polygon></g><g fill="#89939e" data-fill-palette-color="accent"><polygon fill="#89939e" points="28,59 17,59 17,48 19,48 19,57 28,57    " data-fill-palette-color="accent"></polygon></g></g><g fill="#89939e" data-fill-palette-color="accent"><path fill="#89939e" d="M50 51H30c-2.4 0-5-2.1-5-5 0-1.8 3-3.7 3.6-3.9l7.5-2.9c0.4-0.1 0.6-0.1 0.6-0.6-0.8-1-3.4-4.3-3.4-7.1 0-4.6 3.1-8.3 7-8.3 3.8 0 7 3.7 7 8.3 0 2.9-2.7 6.2-3.5 7.2 0 0.6 0 0.6 0.4 0.7l7.5 2.9 0.4 0.3c1.7 1.2 3 2.3 3 3.5l0 0.2C54.7 47.8 53.3 51 50 51zM36.6 41l-7.3 2.9c-0.9 0.4-2.3 1.6-2.4 2.1 0 1.6 1.7 3 3 3h20c2.2 0 2.8-2.4 3-3.1-0.2-0.4-1.6-1.5-2.2-1.9l-0.3-0.2-7.1-2.7c-1.7-0.6-1.8-1.8-1.7-3.1l0-0.3 0.2-0.2c0.9-1 3.2-4 3.2-6.1 0-3.4-2.3-6.3-5-6.3-2.7 0-5 2.9-5 6.3 0 2.1 2.2 5.1 3.1 6.1l0.2 0.3 0 0.3C38.7 39.7 38.1 40.7 36.6 41z" data-fill-palette-color="accent"></path></g></g></svg></g></svg></g></svg></g><defs></defs></svg><rect width="395.52" height="61.164582270894314" fill="none" stroke="none" visibility="hidden"></rect></g></svg></g></svg>